#!OML:ASF E:\Style4\Style4.ASF
:FULLY-SPECIFIED
:DEGREES
2744
root -1.05182 16.7768 -1.32224 8.54032 19.1855 6.51981
lowerback 22.7082 4.11107 0.132345
upperback 10.493 5.4384 -1.41614
thorax -0.98106 2.82977 -2.82312
lowerneck 5.91515 -4.80748 -3.64996
upperneck -8.88399 -6.21465 6.60641
head -3.62774 -3.25997 3.16764
rclavicle 2.38542e-014 -3.33958e-014
rhumerus 21.4186 10.6891 -77.419
rradius 122.29
rwrist 24.7259
rhand 19.7399 -4.40106
rfingers 7.12502
rthumb 44.2927 -28.1739
lclavicle 2.38542e-014 -3.33958e-014
lhumerus 27.2236 -15.517 70.6001
lradius 122.922
lwrist -13.0103
lhand 14.3933 38.0262
lfingers 7.12502
lthumb 39.2803 63.4653
rfemur -35.0754 -10.0727 17.4427
rtibia 58.8719
rfoot -29.6292 -20.0998
rtoes -3.82049
lfemur -37.1808 -3.66241 -22.0674
ltibia 50.1451
lfoot -18.0989 -3.20107
ltoes -16.3749
2745
root -1.08774 16.7762 -1.30505 8.73077 19.9468 6.73939
lowerback 22.6614 4.23272 0.0812033
upperback 10.5616 5.59369 -1.46071
thorax -0.874863 2.91259 -2.86886
lowerneck 5.92726 -4.92485 -3.7067
upperneck -8.94105 -6.36666 6.71934
head -3.63599 -3.33897 3.2252
rclavicle 7.95139e-016 3.18055e-015
rhumerus 21.5924 10.8098 -77.3359
rradius 122.22
rwrist 24.7419
rhand 19.9364 -3.84124
rfingers 7.12502
rthumb 44.4758 -27.5443
lclavicle 7.95139e-016 3.18055e-015
lhumerus 27.0313 -15.322 70.5917
lradius 123.052
lwrist -13.1507
lhand 14.322 38.1284
lfingers 7.12502
lthumb 39.2131 63.5871
rfemur -35.0973 -10.4548 17.4308
rtibia 59.0002
rfoot -29.9495 -20.3138
rtoes -3.41001
lfemur -37.3151 -3.96999 -22.1205
ltibia 50.0374
lfoot -17.9122 -3.58704
ltoes -16.2517
2746
root -1.12095 16.7742 -1.28618 8.9274 20.6668 6.9579
lowerback 22.4296 4.39218 -0.0802157
upperback 10.735 5.78516 -1.41858
thorax -0.582261 3.01039 -2.74681
lowerneck 5.97596 -5.06618 -3.73625
upperneck -9.13471 -6.55319 6.74216
head -3.70035 -3.43292 3.25557
rclavicle 7.87187e-014 -2.3059e-014
rhumerus 21.8371 10.8299 -77.1824
rradius 122.206
rwrist 24.6937
rhand 20.337 -3.74659
rfingers 7.12502
rthumb 44.8488 -27.3054
lclavicle 7.87187e-014 -2.3059e-014
lhumerus 26.9535 -15.1156 70.7693
lradius 123.176
lwrist -13.2509
lhand 14.285 38.3309
lfingers 7.12502
lthumb 39.1782 63.7997
rfemur -35.1106 -10.8339 17.4174
rtibia 59.0826
rfoot -30.1321 -20.557
rtoes -3.14599
lfemur -37.4387 -4.28451 -22.1749
ltibia 49.9463
lfoot -17.79 -3.83499
ltoes -16.6825
2747
root -1.15463 16.7672 -1.26991 9.05191 21.4357 7.02732
lowerback 22.178 4.53023 -0.168195
upperback 10.9383 5.96842 -1.26506
thorax -0.254346 3.10323 -2.54091
lowerneck 6.05545 -5.18659 -3.80609
upperneck -9.71348 -6.67854 6.97503
head -3.50579 -3.52829 3.03916
rclavicle -1.33583e-013 6.20208e-014
rhumerus 22.139 10.9337 -76.8565
rradius 122.272
rwrist 24.6277
rhand 20.4749 -4.35341
rfingers 7.12502
rthumb 44.9772 -27.8619
lclavicle -1.33583e-013 6.20208e-014
lhumerus 26.8925 -14.9055 71.0641
lradius 123.195
lwrist -13.2881
lhand 14.2565 38.2803
lfingers 7.12502
lthumb 39.1513 63.7568
rfemur -35.1227 -11.2042 17.5722
rtibia 59.0925
rfoot -30.041 -21.1179
rtoes -3.69432
lfemur -37.5966 -4.62253 -22.059
ltibia 49.893
lfoot -17.6101 -4.17887
ltoes -16.643
2748
root -1.18492 16.7587 -1.25795 9.21111 22.2013 7.10048
lowerback 21.9038 4.63828 -0.292219
upperback 11.1464 6.10774 -1.07905
thorax 0.0794011 3.1707 -2.26824
lowerneck 6.04966 -5.28309 -3.96583
upperneck -9.87349 -6.81825 6.99207
head -3.53879 -3.59373 3.0786
rclavicle 2.3059e-014 -1.59028e-015
rhumerus 22.4474 11.2115 -76.4159
rradius 122.301
rwrist 24.948
rhand 20.1446 -4.72872
rfingers 7.12502
rthumb 44.6698 -28.3572
lclavicle 2.3059e-014 -1.59028e-015
lhumerus 26.8134 -14.7465 71.3349
lradius 123.139
lwrist -13.3883
lhand 14.0556 38.0709
lfingers 7.12502
lthumb 38.9619 63.6018
rfemur -35.2231 -11.5897 17.7092
rtibia 59.0596
rfoot -29.88 -21.8498
rtoes -4.51812
lfemur -37.8221 -4.99459 -21.9522
ltibia 49.8547
lfoot -17.3164 -4.67218
ltoes -15.9039
2749
root -1.21118 16.7551 -1.24448 9.37032 22.931 7.21922
lowerback 21.6229 4.73645 -0.498406
upperback 11.3761 6.22088 -0.878399
thorax 0.427797 3.22025 -1.92705
lowerneck 6.01408 -5.38196 -4.158
upperneck -10.0499 -6.96231 7.02
head -3.56969 -3.66021 3.12604
rclavicle 1.98785e-014 7.95139e-016
rhumerus 22.756 11.3304 -76.0359
rradius 122.313
rwrist 25.137
rhand 20.0072 -4.79782
rfingers 7.12502
rthumb 44.5418 -28.4756
lclavicle 1.98785e-014 7.95139e-016
lhumerus 26.7527 -14.6079 71.7234
lradius 123.092
lwrist -13.5038
lhand 13.926 38.0375
lfingers 7.12502
lthumb 38.8397 63.6032
rfemur -35.241 -11.9545 17.755
rtibia 59.0227
rfoot -30.1622 -22.1366
rtoes -3.99861
lfemur -37.9985 -5.33517 -21.9171
ltibia 49.8089
lfoot -17.0784 -5.147
ltoes -15.2174
2750
root -1.23626 16.7525 -1.22698 9.45082 23.6289 7.30121
lowerback 21.3749 4.84117 -0.714394
upperback 11.6042 6.34113 -0.66251
thorax 0.75481 3.27059 -1.56864
lowerneck 6.02913 -5.46708 -4.21695
upperneck -10.218 -7.08664 6.942
head -3.6166 -3.71671 3.12129
rclavicle 1.19271e-014 5.56597e-014
rhumerus 23.0038 11.2082 -75.7251
rradius 122.35
rwrist 24.9382
rhand 20.0908 -4.79055
rfingers 7.12502
rthumb 44.6197 -28.4384
lclavicle 1.19271e-014 5.56597e-014
lhumerus 26.6354 -14.405 72.1748
lradius 123.099
lwrist -13.6092
lhand 14.0344 37.9575
lfingers 7.12502
lthumb 38.942 63.4941
rfemur -35.1406 -12.3813 17.8506
rtibia 59.0336
rfoot -30.4974 -22.2641
rtoes -3.52816
lfemur -38.0757 -5.68631 -21.8402
ltibia 49.7603
lfoot -16.9922 -5.42006
ltoes -15.6453
2751
root -1.25951 16.7501 -1.21108 9.4977 24.3781 7.29896
lowerback 21.207 4.89936 -0.798167
upperback 11.7623 6.42113 -0.450603
thorax 0.977985 3.3046 -1.29053
lowerneck 6.06315 -5.52524 -4.1722
upperneck -10.2777 -7.1775 6.77195
head -3.64367 -3.75529 3.06893
rclavicle 3.18055e-015 -4.6118e-014
rhumerus 23.1243 11.0432 -75.4142
rradius 122.389
rwrist 24.6823
rhand 20.0924 -4.72593
rfingers 7.12502
rthumb 44.6212 -28.3732
lclavicle 3.18055e-015 -4.6118e-014
lhumerus 26.4984 -14.15 72.4862
lradius 123.122
lwrist -13.6724
lhand 14.3251 37.8056
lfingers 7.12502
lthumb 39.216 63.2634
rfemur -35.0643 -12.9009 18.0505
rtibia 59.0736
rfoot -30.547 -22.5533
rtoes -3.81289
lfemur -38.1628 -6.0722 -21.6796
ltibia 49.7143
lfoot -16.8646 -5.71935
ltoes -16.0121
2752
root -1.27968 16.7444 -1.19932 9.63724 25.1027 7.28923
lowerback 21.0495 4.91368 -0.814683
upperback 11.8424 6.45176 -0.285516
thorax 1.12168 3.31677 -1.09477
lowerneck 6.0752 -5.582 -4.26134
upperneck -10.2739 -7.2679 6.73676
head -3.63746 -3.79522 3.07586
rclavicle -3.81667e-014 1.59028e-014
rhumerus 23.1493 10.9289 -75.1829
rradius 122.447
rwrist 24.4738
rhand 20.1525 -4.71199
rfingers 7.12502
rthumb 44.6771 -28.3376
lclavicle -3.81667e-014 1.59028e-014
lhumerus 26.3699 -14.0287 72.7291
lradius 123.112
lwrist -13.7368
lhand 14.4606 37.817
lfingers 7.12502
lthumb 39.3436 63.2377
rfemur -35.1342 -13.4685 18.2611
rtibia 59.1404
rfoot -30.597 -22.7546
rtoes -4.07739
lfemur -38.3861 -6.48087 -21.511
ltibia 49.6818
lfoot -16.6839 -6.04566
ltoes -15.6916
2753
root -1.29731 16.7402 -1.18748 9.80432 25.7599 7.36365
lowerback 20.9008 4.88786 -0.909646
upperback 11.9363 6.41641 -0.195473
thorax 1.27671 3.29494 -0.922024
lowerneck 6.03961 -5.61527 -4.38886
upperneck -10.2904 -7.31594 6.8218
head -3.62539 -3.81842 3.12247
rclavicle -8.26944e-014 2.06736e-014
rhumerus 23.2445 10.839 -75.087
rradius 122.507
rwrist 24.3559
rhand 20.3885 -4.76804
rfingers 7.12502
rthumb 44.8968 -28.3081
lclavicle -8.26944e-014 2.06736e-014
lhumerus 26.2254 -13.8781 72.9023
lradius 123.143
lwrist -13.783
lhand 14.4617 37.8006
lfingers 7.12502
lthumb 39.3447 63.221
rfemur -35.1872 -14.0184 18.3625
rtibia 59.1958
rfoot -30.7153 -22.8251
rtoes -4.13115
lfemur -38.577 -6.89746 -21.4293
ltibia 49.6552
lfoot -16.5644 -6.31853
ltoes -15.2513
2754
root -1.31534 16.7399 -1.17539 9.89214 26.4003 7.44145
lowerback 20.9142 4.79381 -0.850374
upperback 12.005 6.31413 -0.250017
thorax 1.35754 3.25306 -0.989109
lowerneck 6.08817 -5.59712 -4.39929
upperneck -10.397 -7.27155 7.00306
head -3.66022 -3.80627 3.18211
rclavicle 1.19271e-013 -9.06458e-014
rhumerus 23.2812 10.7111 -75.2034
rradius 122.546
rwrist 24.3069
rhand 20.4937 -4.72492
rfingers 7.12502
rthumb 44.9947 -28.2266
lclavicle 1.19271e-013 -9.06458e-014
lhumerus 26.1304 -13.755 72.8519
lradius 123.21
lwrist -13.7436
lhand 14.5193 37.6999
lfingers 7.12502
lthumb 39.399 63.1044
rfemur -35.1459 -14.5359 18.4502
rtibia 59.228
rfoot -30.8059 -22.986
rtoes -4.01087
lfemur -38.6684 -7.3411 -21.3457
ltibia 49.6341
lfoot -16.4512 -6.57498
ltoes -14.8119
2755
root -1.33447 16.7393 -1.16242 9.8244 27.0393 7.24657
lowerback 21.058 4.66215 -0.424003
upperback 12.0125 6.22037 -0.347263
thorax 1.34913 3.23485 -1.31996
lowerneck 6.08352 -5.59717 -4.34521
upperneck -10.423 -7.2384 7.25313
head -3.66094 -3.80487 3.24853
rclavicle 6.44062e-014 -3.97569e-014
rhumerus 23.1616 10.5643 -75.4842
rradius 122.589
rwrist 24.3673
rhand 20.4543 -4.60794
rfingers 7.12502
rthumb 44.958 -28.124
lclavicle 6.44062e-014 -3.97569e-014
lhumerus 26.1074 -13.8876 72.5858
lradius 123.257
lwrist -13.5062
lhand 14.5172 37.8108
lfingers 7.12502
lthumb 39.397 63.2159
rfemur -35.0621 -14.9431 18.8124
rtibia 59.2335
rfoot -30.9497 -23.1458
rtoes -3.89006
lfemur -38.7639 -7.64826 -21.0052
ltibia 49.6277
lfoot -16.3096 -6.85154
ltoes -14.7856
2756
root -1.35194 16.7338 -1.15101 9.79349 27.6432 7.10787
lowerback 21.1625 4.58228 -0.17836
upperback 12.0301 6.16482 -0.34924
thorax 1.34126 3.22257 -1.45462
lowerneck 5.99508 -5.64316 -4.44426
upperneck -10.3712 -7.28305 7.51336
head -3.61327 -3.83547 3.33956
rclavicle 1.90833e-014 -3.18055e-014
rhumerus 23.061 10.3819 -75.5892
rradius 122.631
rwrist 24.3274
rhand 20.5148 -4.6479
rfingers 7.12502
rthumb 45.0143 -28.1418
lclavicle 1.90833e-014 -3.18055e-014
lhumerus 26.0717 -14.1073 72.4932
lradius 123.298
lwrist -13.3576
lhand 14.6318 37.9112
lfingers 7.12502
lthumb 39.5049 63.2847
rfemur -35.0292 -15.3236 19.0999
rtibia 59.253
rfoot -31.1764 -23.1807
rtoes -3.67649
lfemur -38.9036 -7.9107 -20.7439
ltibia 49.6366
lfoot -16.1469 -7.11125
ltoes -14.9977
2757
root -1.3654 16.7289 -1.14216 9.88647 28.1754 7.1873
lowerback 21.213 4.58848 -0.270639
upperback 12.0256 6.16214 -0.291374
thorax 1.29484 3.21611 -1.34696
lowerneck 6.10074 -5.72022 -4.34335
upperneck -10.4148 -7.38328 7.46809
head -3.64366 -3.88846 3.31846
rclavicle 1.74931e-014 -3.49861e-014
rhumerus 22.8884 10.1397 -75.549
rradius 122.645
rwrist 24.2525
rhand 20.5867 -4.66917
rfingers 7.12502
rthumb 45.0813 -28.1366
lclavicle 1.74931e-014 -3.49861e-014
lhumerus 25.9486 -14.3548 72.6567
lradius 123.343
lwrist -13.322
lhand 14.7951 37.7659
lfingers 7.12502
lthumb 39.6588 63.094
rfemur -35.0364 -15.7347 19.1539
rtibia 59.2818
rfoot -31.1805 -23.3145
rtoes -3.79092
lfemur -39.032 -8.23638 -20.7071
ltibia 49.631
lfoot -16.0928 -7.23208
ltoes -15.6509
2758
root -1.37594 16.7269 -1.13346 9.93317 28.655 7.16526
lowerback 21.2568 4.62696 -0.270253
upperback 11.9965 6.21538 -0.234162
thorax 1.23549 3.24153 -1.30274
lowerneck 6.30943 -5.81029 -4.01745
upperneck -10.5052 -7.48955 7.31051
head -3.71881 -3.94857 3.23363
rclavicle -1.32788e-013 3.65764e-014
rhumerus 22.6193 9.81329 -75.5943
rradius 122.638
rwrist 24.3395
rhand 20.6048 -4.65447
rfingers 7.12502
rthumb 45.098 -28.1153
lclavicle -1.32788e-013 3.65764e-014
lhumerus 25.8291 -14.6899 72.8047
lradius 123.383
lwrist -13.2163
lhand 14.8698 37.7133
lfingers 7.12502
lthumb 39.729 63.0205
rfemur -35.0264 -16.1371 19.3068
rtibia 59.2908
rfoot -31.1899 -23.4419
rtoes -4.01142
lfemur -39.133 -8.5293 -20.5716
ltibia 49.6
lfoot -16.0299 -7.41557
ltoes -15.5517
